<?xml version="1.0" standalone="no"?><!DOCTYPE svg PUBLIC "-//W3C//DTD SVG 1.1//EN" "http://www.w3.org/Graphics/SVG/1.1/DTD/svg11.dtd"><svg t="1571307513185" class="icon" viewBox="0 0 1024 1024" version="1.1" xmlns="http://www.w3.org/2000/svg" p-id="4771" xmlns:xlink="http://www.w3.org/1999/xlink" width="128" height="128"><defs><style type="text/css"></style></defs><path d="M512 85.333333C276.48 85.333333 85.333333 276.48 85.333333 512s191.146667 426.666667 426.666667 426.666667 426.666667-191.146667 426.666667-426.666667S747.52 85.333333 512 85.333333zM170.666667 512c0-188.586667 152.746667-341.333333 341.333333-341.333333 78.933333 0 151.466667 26.88 209.066667 72.106666L242.773333 721.066667A337.152 337.152 0 0 1 170.666667 512z m341.333333 341.333333c-78.933333 0-151.466667-26.88-209.066667-72.106666L781.226667 302.933333A337.152 337.152 0 0 1 853.333333 512c0 188.586667-152.746667 341.333333-341.333333 341.333333z" fill="#000000" fill-opacity=".64" p-id="4772"></path></svg>